HIERARCHY
ROOT Pelvis
{
	OFFSET 0.000000 0.000000 0.000000
	CHANNELS 6 Xposition Yposition Zposition Xrotation Yrotation Zrotation
	JOINT LeftUpLeg_virtual
	{
		OFFSET 0.000000 0.000000 0.000000
		CHANNELS 3 Xrotation Yrotation Zrotation
		JOINT LeftUpLeg
		{
			OFFSET 18.735201 -5.666702 -4.541200
			CHANNELS 3 Xrotation Yrotation Zrotation
			JOINT LeftLeg
			{
				OFFSET -0.021200 -31.938179 0.493100
				CHANNELS 3 Xrotation Yrotation Zrotation
				JOINT LeftFoot
				{
					OFFSET 0.021200 -31.938179 -4.336299
					CHANNELS 3 Xrotation Yrotation Zrotation
					JOINT LeftToeBase
					{
						OFFSET 0.943001 -26.722000 15.023500
						CHANNELS 3 Xrotation Yrotation Zrotation
						End Site
						{
							OFFSET 0 0 0
						}
					}
				}
			}
		}
	}
	JOINT RightUpLeg_virtual
	{
		OFFSET 0.000000 0.000000 0.000000
		CHANNELS 3 Xrotation Yrotation Zrotation
		JOINT RightUpLeg
		{
			OFFSET -18.735201 -5.666702 -4.541200
			CHANNELS 3 Xrotation Yrotation Zrotation
			JOINT RightLeg
			{
				OFFSET 0.018946 -31.938133 0.493100
				CHANNELS 3 Xrotation Yrotation Zrotation
				JOINT RightFoot
				{
					OFFSET -0.018946 -31.938126 -4.336299
					CHANNELS 3 Xrotation Yrotation Zrotation
					JOINT RightToeBase
					{
						OFFSET -0.943001 -26.722004 15.023500
						CHANNELS 3 Xrotation Yrotation Zrotation
						End Site
						{
							OFFSET 0 0 0
						}
					}
				}
			}
		}
	}
	JOINT Hips_virtual
	{
		OFFSET 0.000000 0.000000 0.000000
		CHANNELS 3 Xrotation Yrotation Zrotation
		JOINT Hips
		{
			OFFSET -0.000000 -0.000000 -0.000000
			CHANNELS 3 Xrotation Yrotation Zrotation
			JOINT Spine
			{
				OFFSET 0.000000 10.199997 -0.299500
				CHANNELS 3 Xrotation Yrotation Zrotation
				JOINT Spine1
				{
					OFFSET 0.000000 11.900002 -1.516600
					CHANNELS 3 Xrotation Yrotation Zrotation
					JOINT Spine2
					{
						OFFSET 0.000000 13.600006 -2.842500
						CHANNELS 3 Xrotation Yrotation Zrotation
						JOINT Neck_virtual
						{
							OFFSET 0.000000 0.000000 0.000000
							CHANNELS 3 Xrotation Yrotation Zrotation
							JOINT Neck
							{
								OFFSET 0.000000 9.624100 -2.890100
								CHANNELS 3 Xrotation Yrotation Zrotation
								JOINT Head
								{
									OFFSET 0.000000 14.068802 -1.351900
									CHANNELS 3 Xrotation Yrotation Zrotation
									End Site
									{
										OFFSET 0 0 0
									}
								}
							}
						}
						JOINT LeftShoulder_virtual
						{
							OFFSET 0.000000 0.000000 0.000000
							CHANNELS 3 Xrotation Yrotation Zrotation
							JOINT LeftShoulder
							{
								OFFSET 15.263000 10.923401 -0.547700
								CHANNELS 3 Xrotation Yrotation Zrotation
								JOINT LeftArm
								{
									OFFSET 25.438599 -2.830597 -13.032500
									CHANNELS 3 Xrotation Yrotation Zrotation
									JOINT LeftForeArm
									{
										OFFSET 29.960503 0.000000 0.000000
										CHANNELS 3 Xrotation Yrotation Zrotation
										JOINT LeftHand
										{
											OFFSET 27.849251 0.000000 0.000000
											CHANNELS 3 Xrotation Yrotation Zrotation
											End Site
											{
												OFFSET 0 0 0
											}
										}
									}
								}
							}
						}
						JOINT RightShoulder_virtual
						{
							OFFSET 0.000000 0.000000 0.000000
							CHANNELS 3 Xrotation Yrotation Zrotation
							JOINT RightShoulder
							{
								OFFSET -15.263000 10.923401 -0.547700
								CHANNELS 3 Xrotation Yrotation Zrotation
								JOINT RightArm
								{
									OFFSET -25.438599 -2.830597 -13.032500
									CHANNELS 3 Xrotation Yrotation Zrotation
									JOINT RightForeArm
									{
										OFFSET -29.960503 0.000000 0.000000
										CHANNELS 3 Xrotation Yrotation Zrotation
										JOINT RightHand
										{
											OFFSET -27.849251 0.000000 0.000000
											CHANNELS 3 Xrotation Yrotation Zrotation
											End Site
											{
												OFFSET 0 0 0
											}
										}
									}
								}
							}
						}
					}
				}
			}
		}
	}
}
MOTION
Frames: 11
Frame Time: 0.03333333
1.481712 84.535828 44.441013 0.000000 0.000000 0.000000 -3.274975 -25.350546 -0.128547 -50.015477 2.840349 18.356794 82.647475 -2.759122 -2.849783 19.502314 -2.827455 -11.773557 0.000000 0.000000 0.000000 4.902926 3.996299 7.077428 -23.873991 -5.397529 -7.176132 44.190716 -1.571657 -4.571569 -10.932956 -2.549693 3.555996 0.000000 0.000000 0.000000 3.647088 0.289470 -0.536298 14.182576 1.712975 -3.257469 9.825091 2.291795 1.302149 4.236249 1.677030 0.747333 0.000000 0.000000 0.000000 4.296642 0.693655 -0.583735 -0.241617 0.182290 -0.028437 0.000000 0.000000 0.000000 4.353201 1.167059 -1.068514 1.497403 -4.218972 -9.977246 -1.650893 -16.411843 -57.899527 5.058751 -55.136617 -2.493718 0.000000 0.000000 0.000000 4.894627 0.760161 0.167371 1.808041 4.911564 8.325103 -17.493723 25.418395 44.575245 0.284913 78.136346 -0.655677 0.000000 0.000000 0.000000 
1.583639 84.540817 45.640556 0.000000 0.000000 0.000000 -3.853753 -24.835695 -0.567127 -50.526615 2.993401 18.062251 81.914308 -2.837080 -2.942782 18.748135 -2.804888 -11.975915 0.000000 0.000000 0.000000 5.002032 3.907643 7.093746 -23.635726 -5.431213 -7.097095 44.405577 -1.554749 -4.519093 -10.709299 -2.541949 3.627431 0.000000 0.000000 0.000000 3.592563 0.302098 -0.522882 13.999109 1.858189 -3.263343 9.780159 2.335854 1.222747 4.203638 1.716507 0.719130 0.000000 0.000000 0.000000 4.371668 0.715669 -0.615787 -0.219729 0.188107 -0.028776 0.000000 0.000000 0.000000 4.345199 1.196345 -1.101176 1.500293 -4.098993 -10.060224 -1.643924 -16.012156 -57.850159 5.016565 -54.915537 -2.434774 0.000000 0.000000 0.000000 4.891747 0.768671 0.144781 1.818870 4.766243 8.419749 -17.198819 25.184113 44.418933 0.409725 77.890938 -0.749166 0.000000 0.000000 0.000000 
1.765496 84.544464 47.930431 0.000000 0.000000 0.000000 -4.846624 -23.871334 -1.338062 -51.396282 3.288345 17.529892 80.464703 -2.969191 -3.107737 17.303786 -2.749037 -12.323444 0.000000 0.000000 0.000000 5.155990 3.788640 7.120754 -23.229415 -5.476604 -6.950472 44.911222 -1.507614 -4.411015 -10.203124 -2.510795 3.788694 0.000000 0.000000 0.000000 3.489379 0.308846 -0.491926 13.631486 2.165825 -3.288322 9.677609 2.414295 1.083862 4.138445 1.783149 0.668255 0.000000 0.000000 0.000000 4.507863 0.756565 -0.671317 -0.180004 0.196785 -0.027765 0.000000 0.000000 0.000000 4.326432 1.247179 -1.163095 1.505299 -3.879019 -10.212853 -1.609831 -15.250901 -57.724989 4.930716 -54.504213 -2.323232 0.000000 0.000000 0.000000 4.885458 0.783233 0.112449 1.833008 4.497119 8.625880 -16.605185 24.707238 44.156852 0.635928 77.351414 -0.888023 0.000000 0.000000 0.000000 
1.991870 84.535088 51.120674 0.000000 0.000000 0.000000 -5.988951 -22.576560 -2.272609 -52.374201 3.700344 16.851677 78.339879 -3.107219 -3.303177 15.290866 -2.640547 -12.707021 0.000000 0.000000 0.000000 5.288962 3.727411 7.146537 -22.779893 -5.499040 -6.760703 45.834394 -1.409942 -4.245623 -9.317228 -2.429434 4.065293 0.000000 0.000000 0.000000 3.346556 0.281495 -0.436835 13.076228 2.656210 -3.350135 9.499501 2.509239 0.915820 4.039869 1.856290 0.602987 0.000000 0.000000 0.000000 4.679820 0.810494 -0.737001 -0.130197 0.203697 -0.023163 0.000000 0.000000 0.000000 4.292511 1.306126 -1.248661 1.511361 -3.596164 -10.415956 -1.523467 -14.192326 -57.484477 4.799280 -53.948560 -2.170018 0.000000 0.000000 0.000000 4.873470 0.800061 0.090730 1.838669 4.142820 8.967834 -15.712910 23.980895 43.866545 0.925381 76.444488 -0.998766 0.000000 0.000000 0.000000 
2.225911 84.497894 54.984428 0.000000 0.000000 0.000000 -7.008010 -21.100596 -3.200223 -53.192680 4.191687 16.123348 75.617940 -3.182420 -3.470313 12.874784 -2.456978 -12.981290 0.000000 0.000000 0.000000 5.313622 3.800776 7.154108 -22.440062 -5.465243 -6.565043 47.310354 -1.244204 -4.028496 -7.949925 -2.267769 4.473596 0.000000 0.000000 0.000000 3.171825 0.194407 -0.351362 12.324116 3.333591 -3.460053 9.233698 2.597164 0.745425 3.905965 1.913085 0.530196 0.000000 0.000000 0.000000 4.855567 0.869627 -0.800448 -0.080593 0.204529 -0.013926 0.000000 0.000000 0.000000 4.239685 1.356963 -1.351941 1.517722 -3.300188 -10.655012 -1.376232 -12.912043 -57.095153 4.620316 -53.289880 -1.989335 0.000000 0.000000 0.000000 4.851020 0.815537 0.099426 1.824994 3.752301 9.462230 -14.536944 23.015466 43.616789 1.243979 75.110416 -1.021674 0.000000 0.000000 0.000000 
2.438712 84.419296 59.300137 0.000000 0.000000 0.000000 -7.697119 -19.591829 -3.995887 -53.636038 4.719538 15.417798 72.424075 -3.119388 -3.541595 10.242860 -2.181317 -12.994916 0.000000 0.000000 0.000000 5.151076 4.041883 7.126003 -22.361054 -5.355436 -6.408512 49.437039 -1.004778 -3.775515 -6.030954 -2.001786 5.007744 0.000000 0.000000 0.000000 2.966907 0.033657 -0.232791 11.359447 4.173070 -3.616348 8.883019 2.652208 0.584796 3.735284 1.934291 0.451965 0.000000 0.000000 0.000000 5.003899 0.925119 -0.855019 -0.041600 0.197147 -0.001725 0.000000 0.000000 0.000000 4.167673 1.383012 -1.468440 1.524121 -3.048992 -10.927504 -1.192015 -11.490321 -56.545507 4.391521 -52.553190 -1.799114 0.000000 0.000000 0.000000 4.812375 0.827087 0.150689 1.787397 3.377776 10.103097 -13.115369 21.853597 43.436031 1.579282 73.341588 -0.944598 0.000000 0.000000 0.000000 
2.613306 84.293625 63.879208 0.000000 0.000000 0.000000 -7.948779 -18.169237 -4.599952 -53.578166 5.247630 14.772523 68.929135 -2.858995 -3.456544 7.576957 -1.809611 -12.631323 0.000000 0.000000 0.000000 4.744133 4.431060 7.050846 -22.666872 -5.168142 -6.333686 52.240456 -0.703213 -3.510701 -3.547930 -1.622551 5.635087 0.000000 0.000000 0.000000 2.724560 -0.202099 -0.084177 10.165802 5.122048 -3.804120 8.468130 2.649992 0.428160 3.530208 1.907513 0.364592 0.000000 0.000000 0.000000 5.102168 0.968238 -0.901691 -0.020583 0.182549 0.008586 0.000000 0.000000 0.000000 4.081652 1.368444 -1.595969 1.530275 -2.904446 -11.243025 -1.027841 -10.014772 -55.851249 4.110677 -51.748877 -1.621725 0.000000 0.000000 0.000000 4.754470 0.833020 0.245646 1.731002 3.068280 10.853749 -11.511881 20.578424 43.300107 1.940517 71.207878 -0.807379 0.000000 0.000000 0.000000 
2.744054 84.131042 68.576164 0.000000 0.000000 0.000000 -7.749745 -16.905186 -5.013724 -52.987699 5.755335 14.191328 65.330835 -2.380801 -3.181826 5.027269 -1.353455 -11.846231 0.000000 0.000000 0.000000 4.061368 4.910250 6.929040 -23.438706 -4.916795 -6.368461 55.660776 -0.368058 -3.259839 -0.556126 -1.142487 6.300872 0.000000 0.000000 0.000000 2.429396 -0.508368 0.085378 8.738352 6.115824 -3.999325 8.023457 2.571482 0.257246 3.300129 1.827331 0.260386 0.000000 0.000000 0.000000 5.141896 0.991582 -0.947535 -0.019132 0.164581 0.009951 0.000000 0.000000 0.000000 3.992045 1.299055 -1.734221 1.534789 -2.927889 -11.615974 -0.958360 -8.584639 -55.048688 3.778454 -50.881214 -1.482168 0.000000 0.000000 0.000000 4.680464 0.831672 0.375324 1.670826 2.863801 11.649277 -9.811480 19.311130 43.142965 2.343449 68.861100 -0.678545 0.000000 0.000000 0.000000 
2.833841 83.963409 73.285416 0.000000 0.000000 0.000000 -7.154353 -15.823328 -5.281159 -51.911436 6.239743 13.654738 61.820691 -1.712365 -2.726435 2.694217 -0.836592 -10.685244 0.000000 0.000000 0.000000 3.093804 5.409458 6.775715 -24.710233 -4.621958 -6.516306 59.559871 -0.039785 -3.043403 2.829212 -0.596659 6.938928 0.000000 0.000000 0.000000 2.062913 -0.884303 0.262597 7.096418 7.098842 -4.173600 7.588383 2.405667 0.051887 3.061837 1.693304 0.131268 0.000000 0.000000 0.000000 5.129832 0.990043 -1.001844 -0.032162 0.148590 -0.004725 0.000000 0.000000 0.000000 3.911824 1.163210 -1.883291 1.533953 -3.173898 -12.054562 -1.052126 -7.305651 -54.180479 3.402414 -49.955812 -1.402555 0.000000 0.000000 0.000000 4.600582 0.820589 0.524462 1.628252 2.789938 12.408464 -8.110178 18.197121 42.882410 2.796830 66.516760 -0.625957 0.000000 0.000000 0.000000 
2.890240 83.844513 77.931320 0.000000 0.000000 0.000000 -6.252375 -14.909558 -5.465724 -50.447012 6.710590 13.133217 58.547910 -0.919967 -2.141970 0.622204 -0.288763 -9.272372 0.000000 0.000000 0.000000 1.847858 5.870055 6.620671 -26.472664 -4.304536 -6.752765 63.743451 0.237531 -2.871890 6.452411 -0.038019 7.484586 0.000000 0.000000 0.000000 1.611168 -1.337552 0.433296 5.285551 8.039528 -4.298033 7.197495 2.149912 -0.199712 2.836209 1.507348 -0.027433 0.000000 0.000000 0.000000 5.084203 0.961064 -1.071690 -0.049423 0.139579 -0.040104 0.000000 0.000000 0.000000 3.852447 0.953087 -2.041729 1.521301 -3.682848 -12.551125 -1.351821 -6.272685 -53.279649 2.999153 -48.981291 -1.394792 0.000000 0.000000 0.000000 4.528934 0.796189 0.676091 1.624907 2.853772 13.049550 -6.501994 17.383308 42.447491 3.299366 64.417392 -0.698277 0.000000 0.000000 0.000000 
2.921575 83.843422 82.458138 0.000000 0.000000 0.000000 -5.141055 -14.130557 -5.629127 -48.712663 7.181362 12.598812 55.594468 -0.086276 -1.505992 -1.195234 0.260246 -7.773468 0.000000 0.000000 0.000000 0.338297 6.255212 6.504981 -28.685855 -3.983172 -7.030210 67.989725 0.425338 -2.745065 10.140666 0.472495 7.886371 0.000000 0.000000 0.000000 1.070850 -1.881690 0.585740 3.365283 8.931390 -4.345657 6.872559 1.807518 -0.495264 2.642278 1.271969 -0.214482 0.000000 0.000000 0.000000 5.027742 0.903967 -1.158641 -0.058759 0.140522 -0.096636 0.000000 0.000000 0.000000 3.820128 0.665775 -2.205012 1.488382 -4.474118 -13.078024 -1.868003 -5.547714 -52.358055 2.592359 -47.967227 -1.454813 0.000000 0.000000 0.000000 4.477595 0.753868 0.815074 1.676037 3.041993 13.503505 -5.068701 16.992017 41.797541 3.843642 62.788481 -0.919838 0.000000 0.000000 0.000000 
